<svg xmlns="http://www.w3.org/2000/svg" width="1280" height="640" viewBox="0 0 1280 640" role="img" aria-labelledby="title desc">
  <title id="title">TunnelRiskStudio social preview / 社交预览图</title>
  <desc id="desc">A civil tunnel risk dashboard preview with tunnel section, buildings, and risk bars. / 土木隧道风险仪表盘预览，包含隧道剖面、建筑物和风险贡献条。</desc>
  <rect width="1280" height="640" fill="#f4f7f5"/>
  <rect x="64" y="64" width="1152" height="512" rx="18" fill="#ffffff" stroke="#d9e1e6"/>
  <text x="112" y="148" fill="#1d252c" font-family="Segoe UI, Arial, sans-serif" font-size="58" font-weight="800">TunnelRiskStudio</text>
  <text x="114" y="196" fill="#60707c" font-family="Segoe UI, Arial, sans-serif" font-size="26">隧道施工风险智能研判台 / Explainable tunnel construction risk dashboard</text>
  <rect x="112" y="252" width="390" height="238" rx="12" fill="#e7ece9" stroke="#d9e1e6"/>
  <path d="M112 352 C206 318 306 386 502 338 L502 490 L112 490 Z" fill="#c7d1cc"/>
  <rect x="154" y="270" width="48" height="82" fill="#7892a0"/>
  <rect x="220" y="292" width="48" height="60" fill="#7892a0"/>
  <ellipse cx="338" cy="410" rx="92" ry="68" fill="#f8fbf8" stroke="#167a8b" stroke-width="14"/>
  <ellipse cx="338" cy="410" rx="58" ry="42" fill="#25333a"/>
  <path d="M142 356 C228 372 330 384 470 354" fill="none" stroke="#b8453f" stroke-width="8" opacity="0.78"/>
  <rect x="574" y="264" width="520" height="20" rx="10" fill="#edf1f0"/>
  <rect x="574" y="264" width="402" height="20" rx="10" fill="#b8453f"/>
  <rect x="574" y="324" width="520" height="20" rx="10" fill="#edf1f0"/>
  <rect x="574" y="324" width="310" height="20" rx="10" fill="#c7801c"/>
  <rect x="574" y="384" width="520" height="20" rx="10" fill="#edf1f0"/>
  <rect x="574" y="384" width="238" height="20" rx="10" fill="#167a8b"/>
  <text x="574" y="456" fill="#1d252c" font-family="Segoe UI, Arial, sans-serif" font-size="30" font-weight="700">CSV 导入 · Markdown 报告 · GitHub Pages 就绪</text>
  <text x="574" y="496" fill="#60707c" font-family="Segoe UI, Arial, sans-serif" font-size="26" font-weight="700">CSV import · Markdown report · GitHub Pages ready</text>
</svg>
